<?xml version="1.0" encoding="UTF-8" standalone="no"?>
<svg
   width="150mm"
   height="150mm"
   viewBox="0 0 150 150"
   version="1.1"
   id="svg8"
   inkscape:version="1.2.1 (9c6d41e410, 2022-07-14)"
   sodipodi:docname="logo_TS.svg"
   xmlns:inkscape="http://www.inkscape.org/namespaces/inkscape"
   xmlns:sodipodi="http://sodipodi.sourceforge.net/DTD/sodipodi-0.dtd"
   xmlns="http://www.w3.org/2000/svg"
   xmlns:svg="http://www.w3.org/2000/svg"
   xmlns:rdf="http://www.w3.org/1999/02/22-rdf-syntax-ns#"
   xmlns:cc="http://creativecommons.org/ns#"
   xmlns:dc="http://purl.org/dc/elements/1.1/">
  <defs
     id="defs2">
    <marker
       inkscape:isstock="true"
       style="overflow:visible"
       id="marker1421"
       refX="0"
       refY="0"
       orient="auto"
       inkscape:stockid="DotS">
      <path
         transform="matrix(0.2,0,0,0.2,1.48,0.2)"
         style="fill:#000000;fill-opacity:1;fill-rule:evenodd;stroke:#000000;stroke-width:1pt;stroke-opacity:1"
         d="m -2.5,-1 c 0,2.76 -2.24,5 -5,5 -2.76,0 -5,-2.24 -5,-5 0,-2.76 2.24,-5 5,-5 2.76,0 5,2.24 5,5 z"
         id="path1419" />
    </marker>
    <marker
       inkscape:isstock="true"
       style="overflow:visible"
       id="marker1357"
       refX="0"
       refY="0"
       orient="auto"
       inkscape:stockid="DotS">
      <path
         transform="matrix(0.2,0,0,0.2,1.48,0.2)"
         style="fill:#000000;fill-opacity:1;fill-rule:evenodd;stroke:#000000;stroke-width:1pt;stroke-opacity:1"
         d="m -2.5,-1 c 0,2.76 -2.24,5 -5,5 -2.76,0 -5,-2.24 -5,-5 0,-2.76 2.24,-5 5,-5 2.76,0 5,2.24 5,5 z"
         id="path1355" />
    </marker>
    <marker
       inkscape:stockid="DotS"
       orient="auto"
       refY="0"
       refX="0"
       id="marker1297"
       style="overflow:visible"
       inkscape:isstock="true"
       inkscape:collect="always">
      <path
         id="path1295"
         d="m -2.5,-1 c 0,2.76 -2.24,5 -5,5 -2.76,0 -5,-2.24 -5,-5 0,-2.76 2.24,-5 5,-5 2.76,0 5,2.24 5,5 z"
         style="fill:#000000;fill-opacity:1;fill-rule:evenodd;stroke:#000000;stroke-width:1pt;stroke-opacity:1"
         transform="matrix(0.2,0,0,0.2,1.48,0.2)" />
    </marker>
    <marker
       inkscape:stockid="DotS"
       orient="auto"
       refY="0"
       refX="0"
       id="DotS"
       style="overflow:visible"
       inkscape:isstock="true">
      <path
         id="path928"
         d="m -2.5,-1 c 0,2.76 -2.24,5 -5,5 -2.76,0 -5,-2.24 -5,-5 0,-2.76 2.24,-5 5,-5 2.76,0 5,2.24 5,5 z"
         style="fill:#000000;fill-opacity:1;fill-rule:evenodd;stroke:#000000;stroke-width:1pt;stroke-opacity:1"
         transform="matrix(0.2,0,0,0.2,1.48,0.2)" />
    </marker>
    <marker
       inkscape:stockid="DotM"
       orient="auto"
       refY="0"
       refX="0"
       id="marker1189"
       style="overflow:visible"
       inkscape:isstock="true">
      <path
         id="path1187"
         d="m -2.5,-1 c 0,2.76 -2.24,5 -5,5 -2.76,0 -5,-2.24 -5,-5 0,-2.76 2.24,-5 5,-5 2.76,0 5,2.24 5,5 z"
         style="fill:#000000;fill-opacity:1;fill-rule:evenodd;stroke:#000000;stroke-width:1pt;stroke-opacity:1"
         transform="matrix(0.4,0,0,0.4,2.96,0.4)" />
    </marker>
    <marker
       inkscape:stockid="DotM"
       orient="auto"
       refY="0"
       refX="0"
       id="DotM"
       style="overflow:visible"
       inkscape:isstock="true">
      <path
         id="path925"
         d="m -2.5,-1 c 0,2.76 -2.24,5 -5,5 -2.76,0 -5,-2.24 -5,-5 0,-2.76 2.24,-5 5,-5 2.76,0 5,2.24 5,5 z"
         style="fill:#000000;fill-opacity:1;fill-rule:evenodd;stroke:#000000;stroke-width:1pt;stroke-opacity:1"
         transform="matrix(0.4,0,0,0.4,2.96,0.4)" />
    </marker>
    <marker
       inkscape:stockid="DotL"
       orient="auto"
       refY="0"
       refX="0"
       id="DotL"
       style="overflow:visible"
       inkscape:isstock="true">
      <path
         id="path922"
         d="m -2.5,-1 c 0,2.76 -2.24,5 -5,5 -2.76,0 -5,-2.24 -5,-5 0,-2.76 2.24,-5 5,-5 2.76,0 5,2.24 5,5 z"
         style="fill:#000000;fill-opacity:1;fill-rule:evenodd;stroke:#000000;stroke-width:1pt;stroke-opacity:1"
         transform="matrix(0.8,0,0,0.8,5.92,0.8)" />
    </marker>
    <rect
       x="34.962799"
       y="76.162201"
       width="90.397903"
       height="23.085714"
       id="rect855" />
    <rect
       x="10.583333"
       y="21.922619"
       width="295.57739"
       height="92.98214"
       id="rect849" />
    <rect
       id="rect933"
       height="92.98214"
       width="295.57739"
       y="21.922619"
       x="10.583333" />
    <rect
       x="10.583333"
       y="21.922619"
       width="295.57739"
       height="92.98214"
       id="rect1013" />
    <rect
       id="rect1117"
       height="92.98214"
       width="295.57739"
       y="21.922619"
       x="10.583333" />
  </defs>
  <sodipodi:namedview
     id="base"
     pagecolor="#ffffff"
     bordercolor="#666666"
     borderopacity="1.0"
     inkscape:pageopacity="0.0"
     inkscape:pageshadow="2"
     inkscape:zoom="0.6904013"
     inkscape:cx="241.16409"
     inkscape:cy="291.85924"
     inkscape:document-units="mm"
     inkscape:current-layer="g1597"
     inkscape:document-rotation="0"
     showgrid="false"
     inkscape:window-width="1920"
     inkscape:window-height="1002"
     inkscape:window-x="3832"
     inkscape:window-y="-8"
     inkscape:window-maximized="1"
     inkscape:showpageshadow="2"
     inkscape:pagecheckerboard="0"
     inkscape:deskcolor="#d1d1d1" />
  <metadata
     id="metadata5">
    <rdf:RDF>
      <cc:Work
         rdf:about="">
        <dc:format>image/svg+xml</dc:format>
        <dc:type
           rdf:resource="http://purl.org/dc/dcmitype/StillImage" />
      </cc:Work>
    </rdf:RDF>
  </metadata>
  <g
     inkscape:label="Ebene 1"
     inkscape:groupmode="layer"
     id="layer1">
    <g
       id="g1597"
       inkscape:export-xdpi="300"
       inkscape:export-ydpi="300">
      <g
         id="g30198"
         transform="translate(0,-24.102969)">
        <g
           aria-label="Kickertisch"
           transform="translate(-7.6817887,62.163656)"
           id="text853"
           style="font-size:16.9333px;line-height:1.25;white-space:pre;shape-inside:url(#rect855);display:inline">
          <path
             d="m 62.593819,85.735017 q -0.254,1.422397 -0.829732,2.523062 -0.558799,1.100664 -1.371597,1.84573 -0.795865,0.745065 -1.811863,1.134531 -0.999065,0.372532 -2.133596,0.372532 -1.286931,0 -1.981196,-0.541865 -0.694266,-0.541866 -0.694266,-1.405464 0,-0.694265 0.457199,-1.286931 0.474133,-0.592665 1.286931,-0.863598 0.08467,-0.01693 0.118533,0.03387 0.03387,0.0508 0,0.135467 -0.440265,0.237066 -0.694265,0.660398 -0.237066,0.423333 -0.237066,0.965199 0,0.812798 0.558799,1.320797 0.575732,0.507999 1.625597,0.507999 1.015998,0 1.777996,-0.254 0.761999,-0.270932 1.303864,-0.829731 0.541866,-0.575732 0.897465,-1.490131 0.372533,-0.931331 0.609599,-2.252129 0.203199,-1.168397 0.457199,-1.947329 0.253999,-0.795865 0.541866,-1.320797 0.287866,-0.524933 0.609598,-0.829732 0.338666,-0.3048 0.711199,-0.491066 -0.440266,-0.169333 -1.032931,-0.270933 -0.592666,-0.118533 -1.303864,-0.118533 -1.049865,0 -1.828797,0.3556 -0.778932,0.338666 -1.253064,0.965198 -0.457199,0.609598 -0.609599,1.456263 -0.1524,0.829732 0.0508,1.811864 -0.01693,0.08467 -0.08467,0.118533 -0.06773,0.01693 -0.1016,-0.0508 -0.237066,-1.049865 -0.03387,-2.015063 0.2032,-0.965198 0.778932,-1.69333 0.592665,-0.728132 1.557864,-1.151464 0.965198,-0.440266 2.269062,-0.440266 0.694265,0 1.354664,0.169333 0.660398,0.1524 1.185331,0.372532 0.06773,0.1016 0,0.186267 -0.06773,0.08467 -0.338666,0.186266 -0.3556,0.1524 -0.626532,0.423333 -0.254,0.270932 -0.457199,0.745065 -0.2032,0.474132 -0.372533,1.202264 -0.169333,0.728132 -0.355599,1.761063 z m 1.354664,-0.660398 q 0.372532,1.320797 0.728132,2.387595 0.372532,1.066798 0.812798,1.828796 0.457199,0.745065 0.999065,1.151465 0.541865,0.389466 1.269997,0.389466 0.389466,0 0.694265,-0.186267 0.3048,-0.203199 0.491066,-0.507999 0.0508,-0.0508 0.1016,0.01693 0.06773,0.0508 0.03387,0.135466 -0.3048,0.575732 -0.846665,0.948265 -0.524933,0.372532 -1.185331,0.372532 -0.778932,0 -1.371598,-0.457199 -0.592665,-0.474132 -1.066798,-1.269997 -0.457199,-0.795865 -0.812798,-1.84573 -0.338666,-1.049865 -0.626532,-2.218262 -0.01693,-0.08467 -0.01693,-0.1524 0.01693,-0.08467 0.101599,-0.169333 0.761999,-0.982131 1.574797,-1.862663 0.829732,-0.880532 1.64253,-1.523997 0.812799,-0.660399 1.557864,-1.032931 0.761998,-0.389466 1.405464,-0.389466 0.338666,0 0.524932,0.253999 0.186266,0.254 0.186266,0.609599 0,0.237066 -0.06773,0.558799 -0.0508,0.321733 -0.135466,0.558799 -0.135467,0.08467 -0.169333,-0.0508 0.08467,-0.406399 -0.118533,-0.694265 -0.2032,-0.3048 -0.761999,-0.3048 -1.083731,0 -2.370662,0.914399 -1.286931,0.914398 -2.573861,2.539995 z"
             style="font-weight:bold;font-family:Tangerine;-inkscape-font-specification:'Tangerine Bold';text-align:center;text-anchor:middle"
             id="path30284" />
          <path
             d="m 72.042588,86.547816 q -0.0508,0.0508 -0.118533,0 -0.0508,-0.0508 -0.08467,-0.135467 -0.03387,-0.1016 -0.03387,-0.203199 0,-0.118533 0.0508,-0.2032 0.186266,-0.237066 0.541865,-0.592665 0.372533,-0.372533 0.761999,-0.626533 0.03387,-0.01693 0.08467,0.03387 0.0508,0.03387 0.03387,0.06773 -0.355599,0.321733 -0.677332,0.778932 -0.321733,0.440266 -0.558799,0.880532 z m -1.811863,1.913463 q -0.0508,0.03387 -0.08467,-0.01693 -0.03387,-0.06773 -0.01693,-0.118533 0.626532,-0.507999 1.74413,-1.049864 0.135467,0 0.135467,0.152399 -0.220133,0.389466 -0.440266,0.846665 -0.2032,0.457199 -0.372533,0.914398 -0.1524,0.440266 -0.253999,0.863599 -0.1016,0.406399 -0.1016,0.677332 0,0.338666 0.237066,0.338666 0.186266,0 0.355599,-0.1524 0.186267,-0.169333 0.423333,-0.423332 0.03387,-0.03387 0.08467,0.01693 0.0508,0.03387 0.01693,0.118533 -0.372533,0.440266 -0.745066,0.711199 -0.355599,0.270932 -0.694265,0.270932 -0.592665,0 -0.592665,-0.558799 0,-0.304799 0.08467,-0.711198 0.1016,-0.423333 0.254,-0.846665 0.169333,-0.440266 0.355599,-0.846665 0.2032,-0.423333 0.406399,-0.728132 -0.186266,0.1016 -0.423332,0.253999 -0.220133,0.1524 -0.372533,0.287867 z"
             style="font-weight:bold;font-family:Tangerine;-inkscape-font-specification:'Tangerine Bold';text-align:center;text-anchor:middle"
             id="path30286" />
          <path
             d="m 75.513921,88.799945 q -0.1016,0.03387 -0.1016,-0.08467 0.118533,-0.355599 -0.0508,-0.626532 -0.152399,-0.270933 -0.575732,-0.270933 -0.541866,0 -0.880532,0.677332 -0.321732,0.677332 -0.321732,1.761063 0,0.795865 0.626532,0.795865 0.287866,0 0.626532,-0.203199 0.355599,-0.220133 0.643465,-0.558799 0.06773,-0.03387 0.118533,0.01693 0.0508,0.0508 0.01693,0.118533 -0.423333,0.541866 -0.948265,0.863599 -0.524932,0.321732 -1.117598,0.321732 -0.372532,0 -0.626532,-0.253999 -0.253999,-0.270933 -0.253999,-0.745065 0,-0.592666 0.237066,-1.185331 0.253999,-0.609599 0.643465,-1.083732 0.389466,-0.474132 0.846665,-0.761998 0.457199,-0.304799 0.897465,-0.304799 0.389466,0 0.609599,0.220132 0.220133,0.220133 0.220133,0.491066 0,0.1016 -0.06773,0.220133 -0.0508,0.118533 -0.1524,0.237066 -0.08467,0.118533 -0.2032,0.220133 -0.1016,0.1016 -0.186266,0.135467 z"
             style="font-weight:bold;font-family:Tangerine;-inkscape-font-specification:'Tangerine Bold';text-align:center;text-anchor:middle"
             id="path30288" />
          <path
             d="m 79.019116,89.375677 q 0.186266,0.897465 0.474132,1.38853 0.3048,0.474133 0.728132,0.474133 0.186266,0 0.338666,-0.08467 0.1524,-0.08467 0.338666,-0.321732 0.0508,-0.01693 0.08467,0.03387 0.0508,0.03387 0.03387,0.08467 -0.524932,0.660398 -1.320797,0.660398 -0.643466,0 -0.982132,-0.558799 -0.321732,-0.575732 -0.524932,-1.710263 -0.0508,-0.135466 0.06773,-0.169333 0.3048,0.06773 0.609599,0.01693 0.3048,-0.0508 0.541866,-0.186266 0.253999,-0.135466 0.389466,-0.355599 0.152399,-0.220133 0.152399,-0.491066 0,-0.423332 -0.423332,-0.423332 -0.592666,0 -1.100665,0.575732 -0.507999,0.558799 -0.745065,1.659463 -0.08467,0.287866 -0.1524,0.609599 -0.06773,0.304799 -0.118533,0.541866 -0.03387,0.135466 -0.06773,0.203199 -0.03387,0.0508 -0.1524,0.118533 -0.135466,0.06773 -0.338666,0.118533 -0.203199,0.0508 -0.304799,0.0508 -0.118533,0 -0.1016,-0.169333 0.3556,-1.879596 0.897465,-3.539059 0.558799,-1.676397 1.236131,-3.081861 0.677332,-1.405464 1.439331,-2.523062 0.778931,-1.117597 1.557863,-1.879596 0.778932,-0.778932 1.54093,-1.185331 0.761999,-0.423332 1.439331,-0.423332 0.423332,0 0.660399,0.169333 0.253999,0.169333 0.338666,0.440265 0.08467,0.254 0.01693,0.558799 -0.0508,0.3048 -0.237066,0.558799 -0.118533,0.118533 -0.1524,-0.0508 0.08467,-0.338666 -0.169333,-0.660398 -0.253999,-0.321733 -0.846665,-0.321733 -0.914398,0 -1.777996,0.541865 -0.846665,0.524933 -1.642531,1.659464 -0.795865,1.117598 -1.523997,2.878661 -0.711198,1.74413 -1.33773,4.182525 0.321732,-0.626532 0.846665,-1.049865 0.541865,-0.440265 1.269997,-0.440265 0.491066,0 0.643466,0.253999 0.169333,0.237066 0.169333,0.474132 0,0.541866 -0.507999,0.931332 -0.507999,0.372533 -1.286931,0.440266 z"
             style="font-weight:bold;font-family:Tangerine;-inkscape-font-specification:'Tangerine Bold';text-align:center;text-anchor:middle"
             id="path30290" />
          <path
             d="m 84.979644,88.122613 q 0,0.965198 -2.556928,1.320797 -0.01693,0.169333 -0.03387,0.338666 0,0.169333 0,0.355599 0,0.440266 0.2032,0.677332 0.203199,0.237066 0.643465,0.237066 0.321733,0 0.660399,-0.186266 0.338666,-0.186266 0.541866,-0.474132 0.06773,-0.03387 0.101599,0.03387 0.03387,0.0508 0.01693,0.118533 -0.338666,0.440266 -0.863599,0.761999 -0.507999,0.304799 -1.100664,0.304799 -0.592666,0 -0.863598,-0.287866 -0.254,-0.304799 -0.254,-0.846665 0,-0.524932 0.220133,-1.083731 0.220133,-0.575732 0.558799,-1.049865 0.355599,-0.474132 0.795865,-0.761998 0.457199,-0.304799 0.914398,-0.304799 0.457199,0 0.728132,0.270932 0.287866,0.254 0.287866,0.575733 z m -1.473197,-0.4064 q -0.389466,0 -0.677332,0.372533 -0.270933,0.355599 -0.372533,1.117598 0.812799,-0.08467 1.202265,-0.3048 0.389466,-0.237066 0.389466,-0.575732 0,-0.253999 -0.1524,-0.423332 -0.1524,-0.186267 -0.389466,-0.186267 z"
             style="font-weight:bold;font-family:Tangerine;-inkscape-font-specification:'Tangerine Bold';text-align:center;text-anchor:middle"
             id="path30292" />
          <path
             d="m 87.282563,87.767013 q 0,0.254 -0.0508,0.575732 -0.0508,0.321733 -0.135467,0.660399 0.338666,-0.812798 0.745065,-1.269997 0.4064,-0.457199 0.880532,-0.457199 0.254,0 0.389466,0.118533 0.135466,0.118533 0.135466,0.304799 0,0.169333 -0.135466,0.440266 -0.118533,0.270933 -0.2032,0.372532 -0.03387,0.01693 -0.06773,0 -0.03387,-0.03387 -0.03387,-0.06773 0,-0.118533 -0.1016,-0.203199 -0.08467,-0.08467 -0.270933,-0.08467 -0.592666,0 -1.083731,0.812799 -0.474133,0.795865 -0.880532,2.302928 -0.01693,0.08467 -0.118533,0.1524 -0.1016,0.0508 -0.237066,0.1016 -0.118533,0.03387 -0.254,0.06773 -0.135466,0.01693 -0.237066,0.01693 -0.186266,0 -0.1016,-0.203199 0.1524,-0.3556 0.287866,-0.761999 0.1524,-0.423332 0.270933,-0.846665 0.118533,-0.423332 0.2032,-0.812798 0.08467,-0.406399 0.135466,-0.745065 0.03387,-0.254 0.01693,-0.389466 0,-0.135467 -0.135467,-0.135467 -0.169333,0 -0.355599,0.1524 -0.169333,0.135466 -0.321733,0.355599 -0.06773,0.0508 -0.135466,0.01693 -0.0508,-0.0508 -0.01693,-0.118533 0.1016,-0.135467 0.237067,-0.270933 0.152399,-0.1524 0.321732,-0.270933 0.186267,-0.135466 0.372533,-0.220133 0.2032,-0.08467 0.406399,-0.08467 0.270933,0 0.372533,0.135466 0.1016,0.118533 0.1016,0.355599 z"
             style="font-weight:bold;font-family:Tangerine;-inkscape-font-specification:'Tangerine Bold';text-align:center;text-anchor:middle"
             id="path30294" />
          <path
             d="m 92.328685,87.360614 q 0.08467,0.03387 0.06773,0.1016 -0.01693,0.0508 -0.1524,0.08467 -0.254,0 -0.592666,0.01693 -0.321732,0.01693 -0.694265,0.0508 -0.338666,0.829731 -0.558799,1.625596 -0.220133,0.778932 -0.220133,1.269998 0,0.575732 0.440266,0.575732 0.440266,0 0.982131,-0.761998 0.0508,-0.03387 0.08467,0 0.0508,0.03387 0.03387,0.118533 -0.287867,0.474132 -0.728132,0.829731 -0.440266,0.338666 -0.863599,0.338666 -0.440265,0 -0.660398,-0.203199 -0.2032,-0.220133 -0.2032,-0.592666 0,-0.491065 0.237066,-1.354664 0.237066,-0.863598 0.609599,-1.761063 -0.440266,0.0508 -0.812798,0.135466 -0.08467,-0.01693 -0.0508,-0.08467 0.0508,-0.06773 0.152399,-0.135466 0.118534,-0.08467 0.270933,-0.135467 0.1524,-0.06773 0.287866,-0.06773 0.06773,0 0.135467,0 0.06773,0 0.135466,-0.01693 0.220133,-0.491066 0.457199,-0.948265 0.237066,-0.457199 0.474133,-0.829732 0.101599,-0.118533 0.270932,-0.203199 0.186267,-0.1016 0.3556,-0.1524 0.169333,-0.0508 0.270933,-0.0508 0.118533,-0.01693 0.101599,0.0508 -0.287866,0.440266 -0.575732,0.982131 -0.270933,0.541866 -0.524932,1.134531 0.321733,-0.01693 0.643465,-0.01693 0.338666,0 0.626532,0 z"
             style="font-weight:bold;font-family:Tangerine;-inkscape-font-specification:'Tangerine Bold';text-align:center;text-anchor:middle"
             id="path30296" />
          <path
             d="m 94.428418,86.547816 q -0.0508,0.0508 -0.118533,0 -0.0508,-0.0508 -0.08467,-0.135467 -0.03387,-0.1016 -0.03387,-0.203199 0,-0.118533 0.0508,-0.2032 0.186266,-0.237066 0.541865,-0.592665 0.372533,-0.372533 0.761999,-0.626533 0.03387,-0.01693 0.08467,0.03387 0.0508,0.03387 0.03387,0.06773 -0.355599,0.321733 -0.677332,0.778932 -0.321733,0.440266 -0.558799,0.880532 z m -1.811863,1.913463 q -0.0508,0.03387 -0.08467,-0.01693 -0.03387,-0.06773 -0.01693,-0.118533 0.626532,-0.507999 1.74413,-1.049864 0.135466,0 0.135466,0.152399 -0.220132,0.389466 -0.440265,0.846665 -0.2032,0.457199 -0.372533,0.914398 -0.1524,0.440266 -0.253999,0.863599 -0.1016,0.406399 -0.1016,0.677332 0,0.338666 0.237066,0.338666 0.186266,0 0.355599,-0.1524 0.186267,-0.169333 0.423333,-0.423332 0.03387,-0.03387 0.08467,0.01693 0.0508,0.03387 0.01693,0.118533 -0.372533,0.440266 -0.745066,0.711199 -0.355599,0.270932 -0.694265,0.270932 -0.592665,0 -0.592665,-0.558799 0,-0.304799 0.08467,-0.711198 0.1016,-0.423333 0.254,-0.846665 0.169333,-0.440266 0.355599,-0.846665 0.203199,-0.423333 0.406399,-0.728132 -0.186266,0.1016 -0.423332,0.253999 -0.220133,0.1524 -0.372533,0.287867 z"
             style="font-weight:bold;font-family:Tangerine;-inkscape-font-specification:'Tangerine Bold';text-align:center;text-anchor:middle"
             id="path30298" />
          <path
             d="m 97.171621,87.275948 q 0.372532,0 0.592665,0.101599 0.237067,0.1016 0.237067,0.254 0,0.186266 -0.1016,0.423332 -0.08467,0.237067 -0.169333,0.389466 -0.03387,0.03387 -0.08467,0.01693 -0.0508,-0.03387 -0.0508,-0.1016 0.0508,-0.118533 0.0508,-0.338666 0,-0.237066 -0.135466,-0.389466 -0.118533,-0.1524 -0.338666,-0.1524 -0.287866,0 -0.474133,0.186266 -0.169333,0.169333 -0.169333,0.491066 0,0.270933 0.135467,0.524932 0.1524,0.237067 0.321733,0.491066 0.186266,0.237066 0.338666,0.524932 0.152399,0.270933 0.152399,0.626533 0,0.609598 -0.491065,0.948264 -0.491066,0.338666 -1.286931,0.338666 -0.575732,0 -0.914398,-0.186266 -0.321733,-0.186266 -0.321733,-0.406399 0,-0.06773 0.0508,-0.186266 0.0508,-0.118534 0.135466,-0.254 0.08467,-0.135466 0.186266,-0.270933 0.1016,-0.135466 0.220133,-0.220133 0.0508,-0.03387 0.08467,0.01693 0.0508,0.0508 0.01693,0.101599 -0.1016,0.1016 -0.1524,0.220133 -0.0508,0.1016 -0.0508,0.287866 0,0.3048 0.203199,0.507999 0.2032,0.186267 0.524932,0.186267 0.440266,0 0.677332,-0.237066 0.254,-0.254 0.254,-0.609599 0,-0.321733 -0.1524,-0.592666 -0.135466,-0.287866 -0.304799,-0.541865 -0.169333,-0.270933 -0.321733,-0.541866 -0.135466,-0.270933 -0.135466,-0.575732 0,-0.440266 0.372532,-0.728132 0.372533,-0.304799 1.100665,-0.304799 z"
             style="font-weight:bold;font-family:Tangerine;-inkscape-font-specification:'Tangerine Bold';text-align:center;text-anchor:middle"
             id="path30300" />
          <path
             d="m 101.388,88.799945 q -0.1016,0.03387 -0.1016,-0.08467 0.11854,-0.355599 -0.0508,-0.626532 -0.1524,-0.270933 -0.57573,-0.270933 -0.54186,0 -0.88053,0.677332 -0.321733,0.677332 -0.321733,1.761063 0,0.795865 0.626533,0.795865 0.28787,0 0.62653,-0.203199 0.3556,-0.220133 0.64347,-0.558799 0.0677,-0.03387 0.11853,0.01693 0.0508,0.0508 0.0169,0.118533 -0.42333,0.541866 -0.94826,0.863599 -0.52493,0.321732 -1.117599,0.321732 -0.372533,0 -0.626532,-0.253999 -0.254,-0.270933 -0.254,-0.745065 0,-0.592666 0.237066,-1.185331 0.254,-0.609599 0.643466,-1.083732 0.389466,-0.474132 0.846669,-0.761998 0.45719,-0.304799 0.89746,-0.304799 0.38947,0 0.6096,0.220132 0.22013,0.220133 0.22013,0.491066 0,0.1016 -0.0677,0.220133 -0.0508,0.118533 -0.1524,0.237066 -0.0847,0.118533 -0.2032,0.220133 -0.1016,0.1016 -0.18627,0.135467 z"
             style="font-weight:bold;font-family:Tangerine;-inkscape-font-specification:'Tangerine Bold';text-align:center;text-anchor:middle"
             id="path30302" />
          <path
             d="m 102.31933,91.458473 q 0.762,-2.912528 1.74413,-5.249323 0.99907,-2.336796 2.09973,-3.979326 1.10067,-1.64253 2.21826,-2.523062 1.13454,-0.897464 2.15053,-0.897464 0.42334,0 0.6604,0.203199 0.254,0.186266 0.33867,0.474133 0.1016,0.270932 0.0339,0.592665 -0.0677,0.321733 -0.25399,0.575732 -0.0508,0.0508 -0.1016,0.03387 -0.0508,-0.01693 -0.0508,-0.08467 0.0847,-0.338666 -0.18627,-0.643465 -0.27093,-0.304799 -0.8636,-0.304799 -0.9144,0 -1.74413,0.491065 -0.8128,0.491066 -1.59173,1.64253 -0.77893,1.134531 -1.524,3.031061 -0.74506,1.879596 -1.52399,4.690524 0.254,-0.457199 0.57573,-0.863598 0.33867,-0.406399 0.72813,-0.711199 0.38947,-0.304799 0.82973,-0.474132 0.44027,-0.186266 0.9144,-0.186266 0.2032,0 0.28787,0.101599 0.1016,0.1016 0.1016,0.237067 0,0.220132 -0.1524,0.491065 -0.3556,0.626532 -0.57574,1.286931 -0.22013,0.660399 -0.22013,1.202264 0,0.237067 0.0508,0.389466 0.0508,0.1524 0.18627,0.1524 0.16933,0 0.37253,-0.169333 0.2032,-0.186266 0.33867,-0.406399 0.0508,-0.03387 0.1016,0.01693 0.0508,0.03387 0.0339,0.08467 -0.22013,0.372532 -0.62653,0.660398 -0.38946,0.287866 -0.7112,0.287866 -0.28786,0 -0.47413,-0.152399 -0.18627,-0.169333 -0.18627,-0.558799 0,-0.3048 0.0508,-0.643466 0.0677,-0.355599 0.1524,-0.694265 0.1016,-0.338666 0.22014,-0.660399 0.13546,-0.338666 0.28786,-0.609598 0.0847,-0.2032 0.0847,-0.287867 0,-0.152399 -0.16933,-0.152399 -0.32174,0 -0.69427,0.253999 -0.37253,0.237066 -0.72813,0.694266 -0.3556,0.440265 -0.69427,1.066797 -0.32173,0.626533 -0.5588,1.388531 -0.0339,0.118533 -0.27093,0.237066 -0.23706,0.118533 -0.52493,0.118533 -0.16933,0 -0.13547,-0.152399 z"
             style="font-weight:bold;font-family:Tangerine;-inkscape-font-specification:'Tangerine Bold';text-align:center;text-anchor:middle"
             id="path30304" />
        </g>
        <path
           style="fill:#000000;fill-opacity:1;stroke:#000000;stroke-width:1;stroke-linecap:butt;stroke-linejoin:miter;stroke-miterlimit:4;stroke-dasharray:none;stroke-opacity:1;marker-start:url(#marker1297);marker-end:url(#DotS)"
           d="M 26.280791,69.736607 H 123.75921"
           id="path859"
           inkscape:export-xdpi="300"
           inkscape:export-ydpi="300"
           transform="translate(0,63.500003)" />
        <path
           style="fill:#000000;fill-opacity:1;stroke:#000000;stroke-width:1;stroke-linecap:butt;stroke-linejoin:miter;stroke-miterlimit:4;stroke-dasharray:none;stroke-opacity:1;marker-start:url(#marker1421);marker-end:url(#marker1357)"
           d="m 30.48141,73.157291 h 89.07718"
           id="path1353"
           inkscape:export-xdpi="300"
           inkscape:export-ydpi="300"
           transform="translate(0,63.500003)" />
        <g
           id="g643"
           transform="translate(-3.3478666,63.500003)">
          <path
             d="m 13.784384,62.968274 q 1.1684,0.4064 2.3876,0.7112 1.27,0.254 2.4892,0.254 1.27,0 1.9812,-0.6096 0.762,-0.6096 1.1684,-1.6764 0.1524,-0.1524 0.3048,-0.0508 0.2032,0.1016 0.1524,0.3048 -1.6764,4.4704 -4.9276,4.4704 -1.0668,0 -2.1844,-0.254 -1.0668,-0.254 -2.1844,-0.6604 -0.6604,-0.2032 -1.1684,0 -0.508,0.1524 -1.3208,0.9144 -0.254,0 -0.3556,-0.254 -0.1523996,-0.254 -0.0508,-0.508 1.1176,-1.1176 2.3876,-2.3368 1.27,-1.27 2.54,-2.4892 1.27,-1.2192 2.4892,-2.3876 1.2192,-1.1684 2.2352,-2.1336 -1.1684,-0.254 -2.6416,-0.4064 -1.4224,-0.2032 -2.3876,-0.2032 -1.4732,0 -2.032,1.6256 -0.1016,0.1524 -0.3048,0.0508 -0.2032,-0.1016 -0.2032,-0.254 0.6604,-1.8288 1.524,-2.743199 0.8636,-0.9652 2.3876,-0.9652 1.1684,0 2.4892,0.254 1.3716,0.254 2.0828,0.4064 0.5588,0.1524 0.9652,0 0.4572,-0.1524 0.8636,-0.508 0.1524,-0.1524 0.4572,-0.1524 0.6096,0 0.508,0.4572 -2.794,2.590799 -5.1816,4.825999 -2.3368,2.1844 -4.4704,4.318 z"
             style="font-size:50.8px;line-height:1.25;font-family:Tangerine;-inkscape-font-specification:'Tangerine Bold';white-space:pre;shape-inside:url(#rect849);display:inline;font-weight:bold"
             id="path30307"
             transform="translate(112.18335)" />
          <path
             d="m 26.027184,63.171474 q 0.1016,-0.1016 0.254,0 0.1524,0.1016 0.1016,0.3048 -0.9144,1.3208 -2.032,2.1336 -1.1176,0.762 -2.1336,0.762 -1.1684,0 -1.524,-1.6256 -0.3048,-1.6764 0.3556,-3.9624 -1.3716,2.1844 -2.9972,3.7592 -1.5748,1.524 -3.3528,1.8288 -1.2192,0 -1.8796,-1.1176 -0.6604,-1.1176 -0.6604,-2.5908 0,-1.6764 0.8128,-3.302 0.8128,-1.6764 2.1336,-2.9972 1.3716,-1.320799 2.9972,-2.133599 1.6764,-0.8636 3.3528,-0.8636 1.778,0 2.794,0.8636 0.508,-0.3556 1.27,-0.6096 0.8128,-0.254 1.4224,-0.254 0.2032,0 0.2032,0.254 -1.1684,1.4224 -2.032,3.149599 -0.8128,1.6764 -1.27,3.2512 -0.4572,1.524 -0.5588,2.7432 -0.1016,1.2192 0.2032,1.6764 0.254,0.3048 0.8636,0.2032 0.6096,-0.1524 1.6764,-1.4732 z m -9.7536,1.3208 q 0.6096,0 1.4732,-0.762 0.9144,-0.762 1.8796,-2.032 0.9652,-1.27 1.8796,-2.8448 0.9652,-1.5748 1.6764,-3.2004 -0.2032,-0.660399 -0.9652,-1.066799 -0.7112,-0.4064 -1.6764,-0.4064 -1.1684,0 -2.1844,0.6096 -1.016,0.558799 -1.778,1.625599 -0.7112,1.016 -1.1684,2.4892 -0.4064,1.4224 -0.4064,3.1496 0,1.1176 0.3556,1.778 0.4064,0.6604 0.9144,0.6604 z"
             style="font-size:50.8px;line-height:1.25;font-family:Tangerine;-inkscape-font-specification:'Tangerine Bold';white-space:pre;shape-inside:url(#rect933);display:inline;font-weight:bold"
             id="path30310"
             transform="translate(53.445832)" />
          <path
             d="m 54.779984,62.511074 q 0.1016,-0.1016 0.3048,-0.1016 0.254,0 0.1524,0.254 -1.0668,1.7272 -2.4892,2.7432 -1.4224,0.9652 -3.048,0.9652 -2.2352,0 -3.81,-1.27 -1.5748,-1.3208 -2.7432,-3.4544 -1.1176,-2.1844 -1.8796,-5.0292 -0.762,-2.844799 -1.4224,-5.943599 0,-0.3556 0.2032,-0.4064 0.254,-0.1524 0.9144,-0.3048 0.7112,-0.2032 1.27,-0.4064 0.1524,-0.0508 0.4572,0.0508 0.3556,0.0508 0.8128,0.1524 0.508,0.0508 1.1684,0.1016 0.6604,0 1.524,-0.2032 2.1844,-0.508 3.4036,-2.2352 1.2192,-1.778 1.2192,-4.7752 0,-1.4732 -0.508,-2.794 -0.4572,-1.3208 -1.4224,-2.286 -0.9144,-1.016 -2.3368,-1.6256 -1.3716,-0.6604 -3.2512,-0.8128 -1.3208,1.6764 -2.3876,4.1656 -1.016,2.4892 -1.8796,5.7404 -1.524,5.588 -3.556,9.652 -1.9812,4.013199 -4.4196,6.603999 -2.4384,2.5908 -5.2832,3.8608 -2.8448,1.2192 -5.9436,1.2192 -3.5052,0 -5.1308,-1.5748 -1.5748,-1.6256 -1.5748,-4.2164 0,-2.3368 1.3208,-4.1148 1.3716,-1.777999 3.302,-2.489199 0.508,-0.2032 0.3048,0.3556 -2.9464,1.574799 -2.9464,4.673599 0,2.4892 1.5748,4.0132 1.5748,1.4732 4.7244,1.4732 2.54,0 4.4196,-0.5588 1.9304,-0.6096 3.5052,-2.3876 1.5748,-1.8288 2.9464,-5.1816 1.4224,-3.352799 2.9464,-8.889999 2.286,-8.4328 6.35,-12.3444 -4.7244,0.1524 -8.128,1.8288 -3.3528,1.6256 -5.7912,5.1308 -0.2032,0.1016 -0.3556,0 -0.1524,-0.1016 -0.0508,-0.3556 2.3876,-3.5052 6.4008,-5.6388 4.0132,-2.1844 9.7028,-2.4384 1.8796,-1.27 4.1656,-1.8796 0.254,0 0.254,0.2032 0,0.1524 -0.254,0.254 -1.3716,0.3556 -2.6924,1.4224 2.1336,0 3.81,0.6604 1.6764,0.6604 2.8448,1.778 1.1684,1.1176 1.778,2.54 0.6096,1.4224 0.6096,2.9464 0,2.1336 -0.8128,3.8608 -0.762,1.7272 -2.2352,2.9464 -1.4224,1.2192 -3.5052,1.8288 -2.032,0.5588 -4.572,0.3048 0.762,3.9624 1.6764,6.654799 0.9144,2.6416 1.9812,4.2164 1.1176,1.5748 2.4384,2.2352 1.3716,0.6604 2.9464,0.6604 1.7272,0 2.9972,-1.778 z"
             style="font-size:50.8px;line-height:1.25;font-family:Tangerine;-inkscape-font-specification:'Tangerine Bold';white-space:pre;shape-inside:url(#rect1013);display:inline;font-weight:bold"
             id="path30313"
             transform="translate(7.9375)" />
          <path
             d="m 37.304784,27.967075 q 0.9652,0 1.6256,0.4572 0.6604,0.4064 1.016,1.1176 0.3556,0.7112 0.4064,1.6256 0.0508,0.8636 -0.1524,1.8288 -0.3048,0.2032 -0.4572,-0.0508 -0.1524,-1.016 -1.0668,-1.7272 -0.9144,-0.762 -2.6924,-0.762 -2.8448,0 -5.2832,1.4224 -2.4384,1.4224 -4.6228,4.6228 -2.1336,3.1496 -4.1148,8.2296 -1.9304,5.0292 -3.81,12.293599 0.3556,-0.5588 0.9652,-1.1684 0.6604,-0.660399 1.4732,-1.219199 0.8128,-0.5588 1.6764,-0.9144 0.9144,-0.3556 1.778,-0.3556 1.0668,0 1.7272,0.9652 0.6604,0.965199 0.6604,2.285999 0,1.9304 -0.9652,3.7084 -0.9652,1.7272 -2.4384,3.0988 -1.4732,1.3208 -3.2004,2.1336 -1.7272,0.8128 -3.2512,0.8128 -1.27,0 -1.778,-0.6096 -0.508,-0.6096 -0.508,-1.7272 0,-1.4224 0.3556,-3.3528 0.4064,-1.9812 1.0668,-4.1656 0.6604,-2.235199 1.5748,-4.622799 0.9652,-2.4384 2.032,-4.7752 4.318,-9.2964 8.7376,-14.224 4.4704,-4.9276 9.2456,-4.9276 z m -14.986,27.0764 q -0.762,0 -1.6256,0.507999 -0.8636,0.4572 -1.6256,1.4732 -0.762,0.9652 -1.3208,2.4384 -0.508,1.4732 -0.6604,3.4036 -0.1016,1.1176 0.254,1.5748 0.4064,0.4572 1.1684,0.4572 0.9652,0 1.9304,-0.6096 0.9652,-0.6604 1.7272,-1.6764 0.8128,-1.0668 1.27,-2.3368 0.508,-1.27 0.508,-2.54 0,-1.4732 -0.4572,-2.0828 -0.4572,-0.609599 -1.1684,-0.609599 z"
             style="font-size:50.8px;line-height:1.25;font-family:Tangerine;-inkscape-font-specification:'Tangerine Bold';white-space:pre;shape-inside:url(#rect1117);display:inline;font-weight:bold"
             id="path30316"
             transform="translate(68.262501)" />
          <path
             d="m 42.232396,63.171474 q 0.1016,-0.1016 0.254,0 0.1524,0.1016 0.1016,0.3048 -0.9144,1.3208 -2.032,2.1336 -1.1176,0.762 -2.1336,0.762 -1.1684,0 -1.524,-1.6256 -0.3048,-1.6764 0.3556,-3.9624 -1.3716,2.1844 -2.9972,3.7592 -1.5748,1.524 -3.3528,1.8288 -1.2192,0 -1.8796,-1.1176 -0.6604,-1.1176 -0.6604,-2.5908 0,-1.6764 0.8128,-3.302 0.8128,-1.6764 2.1336,-2.9972 1.3716,-1.320799 2.9972,-2.133599 1.6764,-0.8636 3.3528,-0.8636 1.778,0 2.794,0.8636 0.508,-0.3556 1.27,-0.6096 0.8128,-0.254 1.4224,-0.254 0.2032,0 0.2032,0.254 -1.1684,1.4224 -2.032,3.149599 -0.8128,1.6764 -1.27,3.2512 -0.4572,1.524 -0.5588,2.7432 -0.1016,1.2192 0.2032,1.6764 0.254,0.3048 0.8636,0.2032 0.6096,-0.1524 1.6764,-1.4732 z m -9.7536,1.3208 q 0.6096,0 1.4732,-0.762 0.9144,-0.762 1.8796,-2.032 0.9652,-1.27 1.8796,-2.8448 0.9652,-1.5748 1.6764,-3.2004 -0.2032,-0.660399 -0.9652,-1.066799 -0.7112,-0.4064 -1.6764,-0.4064 -1.1684,0 -2.1844,0.6096 -1.016,0.558799 -1.778,1.625599 -0.7112,1.016 -1.1684,2.4892 -0.4064,1.4224 -0.4064,3.1496 0,1.1176 0.3556,1.778 0.4064,0.6604 0.9144,0.6604 z"
             style="font-size:50.8px;line-height:1.25;font-family:Tangerine;-inkscape-font-specification:'Tangerine Bold';white-space:pre;shape-inside:url(#rect1117);display:inline;font-weight:bold"
             id="path30318"
             transform="translate(68.262501)" />
          <path
             d="m 54.67838,53.621075 q 0.254,0.1016 0.2032,0.3048 -0.0508,0.1524 -0.4572,0.254 -0.762,0 -1.778,0.0508 -0.9652,0.0508 -2.0828,0.1524 -1.016,2.489199 -1.6764,4.876799 -0.6604,2.3368 -0.6604,3.81 0,1.7272 1.3208,1.7272 1.3208,0 2.9464,-2.286 0.1524,-0.1016 0.254,0 0.1524,0.1016 0.1016,0.3556 -0.8636,1.4224 -2.1844,2.4892 -1.3208,1.016 -2.5908,1.016 -1.3208,0 -1.9812,-0.6096 -0.6096,-0.6604 -0.6096,-1.778 0,-1.4732 0.7112,-4.064 0.7112,-2.5908 1.8288,-5.283199 -1.3208,0.1524 -2.4384,0.4064 -0.254,-0.0508 -0.1524,-0.254 0.1524,-0.2032 0.4572,-0.4064 0.3556,-0.254 0.8128,-0.4064 0.4572,-0.2032 0.8636,-0.2032 0.2032,0 0.4064,0 0.2032,0 0.4064,-0.0508 0.6604,-1.4732 1.3716,-2.8448 0.7112,-1.3716 1.4224,-2.4892 0.3048,-0.3556 0.8128,-0.6096 0.5588,-0.3048 1.0668,-0.4572 0.508,-0.1524 0.8128,-0.1524 0.3556,-0.0508 0.3048,0.1524 -0.8636,1.3208 -1.7272,2.9464 -0.8128,1.6256 -1.5748,3.4036 0.9652,-0.0508 1.9304,-0.0508 1.016,0 1.8796,0 z"
             style="font-size:50.8px;line-height:1.25;font-family:Tangerine;-inkscape-font-specification:'Tangerine Bold';white-space:pre;shape-inside:url(#rect1117);display:inline;font-weight:bold"
             id="path30320"
             transform="translate(68.262501)" />
        </g>
        <path
           inkscape:export-ydpi="600"
           inkscape:export-xdpi="600"
           id="path946"
           d="m 74.104556,88.482394 -4.90873,-0.08764 -2.12236,-0.800147 c -3.26103,-1.22944 -3.84802,-1.570589 -6.48899,-3.771307 -1.74924,-1.457646 -2.04503,-1.836015 -4.39794,-5.625911 l -1.59582,-2.570428 -0.45576,-2.3383 c -0.25067,-1.286064 -0.7001,-3.767373 -0.99874,-5.514018 -0.47816,-2.796572 -0.52314,-3.285153 -0.37677,-4.092327 0.40146,-2.213889 2.69159,-7.971465 4.14926,-10.431532 1.28062,-2.161283 3.27859,-3.91803 6.9936,-6.149251 1.20092,-0.721267 2.18213,-1.156607 3.80958,-1.690227 2.59584,-0.851139 2.69043,-0.863873 2.44324,-0.328924 -0.0991,0.214399 -0.28532,0.425684 -0.41388,0.469523 -0.12856,0.04384 -0.89884,0.701358 -1.71171,1.461155 -1.47167,1.375563 -1.477,1.383253 -1.25093,1.805665 0.12486,0.23332 0.52698,0.746315 0.89359,1.139989 0.3666,0.393674 0.66655,0.791116 0.66655,0.883206 0,0.195771 0.5682,1.072074 1.44513,2.228752 l 0.62184,0.820224 5.0662,-0.04106 5.0662,-0.04106 0.29681,-0.397641 c 0.16325,-0.218703 0.30785,-0.54409 0.32133,-0.723084 0.0148,-0.196666 0.1044,-0.294789 0.22639,-0.247975 0.33879,0.130004 0.22493,-0.34739 -0.17172,-0.720023 l -0.3736,-0.350976 -0.28345,0.479845 c -0.1559,0.263914 -0.40853,0.519542 -0.5614,0.568062 -0.16181,0.05136 -0.27794,0.239743 -0.27794,0.450886 0,0.339322 -0.0376,0.353934 -0.58438,0.226966 -0.89583,-0.208033 -4.67563,-0.180135 -4.74736,0.03504 -0.0446,0.133683 -0.14253,0.133683 -0.39232,0 -0.18311,-0.098 -0.64433,-0.178179 -1.02494,-0.178179 -1.12619,0 -1.63139,-0.153233 -1.72566,-0.523407 -0.0467,-0.183519 -0.55196,-0.964794 -1.12272,-1.736166 -1.59765,-2.159192 -1.60279,-1.882702 0.0661,-3.558596 1.25658,-1.261826 2.36294,-2.042072 2.36294,-1.666435 0,0.247236 0.68284,0.291136 2.45253,0.157672 1.08861,-0.0821 1.84941,-0.209562 1.91854,-0.321428 0.0801,-0.129652 0.16395,-0.09311 0.27885,0.121572 0.12193,0.227836 0.28215,0.289648 0.62162,0.239824 0.25155,-0.03692 0.50486,0.0097 0.56292,0.103686 0.0581,0.09395 0.3074,0.170811 0.55408,0.170811 0.30461,0 0.58914,0.155977 0.88684,0.486163 1.37343,1.523293 1.74397,1.851468 2.09303,1.853712 0.26756,0.0017 0.31213,0.03977 0.1597,0.136354 -0.29093,0.18434 0.0415,0.378963 0.43433,0.254282 0.19559,-0.06208 0.40938,0.02492 0.62194,0.253075 0.44211,0.474551 0.40815,0.691611 -0.0602,0.384737 -0.21125,-0.138419 -0.47422,-0.250597 -0.58437,-0.249285 -0.14372,0.0017 -0.14981,0.03471 -0.0215,0.116875 0.23399,0.149888 0.30128,0.646652 0.14888,1.099197 -0.11532,0.342449 -0.13266,0.34653 -0.33104,0.07792 -0.29985,-0.406014 -0.49178,-0.124014 -0.5792,0.850988 -0.0901,1.005437 0.11499,1.194171 0.44346,0.408017 0.13414,-0.321036 0.41457,-0.717961 0.62318,-0.882054 0.20861,-0.164092 0.48308,-0.49905 0.60993,-0.74435 0.40943,-0.791756 0.21471,-2.019803 -0.32026,-2.019803 -0.12555,0 -0.22827,-0.10272 -0.22827,-0.228266 0,-0.334195 -0.50771,-0.550897 -1.29069,-0.550897 -0.6578,0 -0.69855,-0.02724 -0.93271,-0.623331 -0.23712,-0.603654 -0.2348,-0.62333 0.0734,-0.62333 0.26519,0 0.28589,-0.03895 0.12422,-0.233749 -0.1067,-0.128562 -0.262,-0.233749 -0.34513,-0.233749 -0.0831,0 -0.32943,-0.14025 -0.54734,-0.311665 -0.3705,-0.291434 -0.37529,-0.311666 -0.0737,-0.311666 0.50537,0 1.16024,0.296939 1.39545,0.632745 0.43619,0.622746 2.68735,1.412125 2.68735,0.942331 0,-0.1104 0.24774,-0.05253 0.64691,0.151109 0.45099,0.230079 0.58591,0.367717 0.44552,0.454484 -0.14073,0.08698 0.064,0.300692 0.68003,0.709676 0.9981,0.662706 1.36862,0.644871 0.45839,-0.02206 -0.77895,-0.570751 -0.9804,-0.762739 -0.59116,-0.563388 0.59566,0.305066 2.25613,1.590412 2.25613,1.746434 0,0.08588 0.10519,0.156155 0.23375,0.156155 0.12856,0 0.23375,0.07426 0.23375,0.165029 0,0.09077 0.081,0.114994 0.17991,0.05384 0.10742,-0.06639 0.13776,-0.043 0.0753,0.05806 -0.13395,0.216736 0.48997,0.658071 0.93033,0.658071 0.4125,0 1.66231,1.308407 3.50492,3.669241 1.56505,2.005202 1.77676,2.342041 1.07287,1.706984 l -0.51817,-0.467498 0.33969,0.493601 c 0.18683,0.271481 0.55068,0.937665 0.80855,1.48041 0.36224,0.762433 0.45138,0.871653 0.39202,0.480353 -0.10516,-0.693164 -0.003,-0.635105 0.27382,0.155833 0.12755,0.364258 0.28631,0.79651 0.3528,0.960558 0.0851,0.209891 0.0669,0.264884 -0.0614,0.185595 -0.20764,-0.12833 -0.24862,0.335458 -0.0697,0.789009 0.0932,0.236399 0.12672,0.20769 0.19479,-0.167062 0.0734,-0.404098 0.11855,-0.340493 0.42198,0.594461 0.27184,0.837605 0.29161,1.006995 0.0989,0.847056 -0.20504,-0.170163 -0.23104,-0.15427 -0.1747,0.106786 0.0364,0.168687 0.14758,0.289872 0.24707,0.269297 0.20538,-0.04247 0.40973,0.300196 0.56446,0.946503 0.0693,0.289548 0.0499,0.407106 -0.0564,0.341426 -0.18126,-0.112025 -0.2101,0.07927 -0.0678,0.449998 0.0518,0.135079 0.16807,0.199973 0.2583,0.144209 0.10298,-0.06365 0.1297,0.0092 0.0718,0.195687 -0.0508,0.16339 -0.13713,0.472386 -0.19195,0.686656 -0.0961,0.375458 -0.0908,0.378615 0.14564,0.08709 0.22814,-0.281308 0.24449,-0.221286 0.23346,0.857079 -0.011,1.07136 -0.0258,1.121895 -0.19479,0.664299 -0.24388,-0.660275 -0.41668,-0.808738 -0.41668,-0.357996 0,0.356525 -0.007,0.358451 -0.22879,0.06493 -0.34393,-0.454713 -0.28422,-0.01493 0.10742,0.791181 0.28535,0.587341 0.3676,0.663316 0.46844,0.432708 0.35045,-0.801434 -0.16466,2.001235 -0.90805,4.940673 -1.08713,4.298601 -1.3473,5.067749 -2.11846,6.262982 -1.01366,1.571079 -3.49662,4.732046 -4.44237,5.655424 -1.43018,1.396332 -4.09787,3.172701 -5.63136,3.749821 -0.74708,0.281161 -1.966,0.762749 -2.70872,1.070198 -0.74271,0.307448 -1.5472,0.543844 -1.78775,0.525325 -0.24055,-0.01852 -2.64629,-0.0731 -5.34609,-0.121304 z m 4.83081,-1.239375 V 86.472 l -3.57666,-0.0471 c -2.11931,-0.02791 -3.63608,-0.110597 -3.72247,-0.202935 -0.0802,-0.08571 -0.19347,-0.313613 -0.25174,-0.506456 l -0.10593,-0.350623 3.32195,9.35e-4 c 2.64224,7.79e-4 3.41327,0.04859 3.76829,0.233749 0.2455,0.128034 0.54937,0.232789 0.67528,0.232789 0.39348,0 0.13258,-0.354956 -0.50784,-0.690923 -0.5701,-0.299068 -0.8763,-0.321989 -4.30143,-0.321989 -2.86093,0 -3.65269,-0.04214 -3.53177,-0.187965 0.0857,-0.10338 0.1027,-0.278691 0.0377,-0.389582 -0.065,-0.110889 0.0166,-0.08488 0.18137,0.05779 0.25634,0.22203 0.79979,0.265962 3.77167,0.30491 l 3.47218,0.0455 0.79412,-0.79412 c 0.73936,-0.739337 0.87204,-1.140253 0.37737,-1.140253 -0.11154,0 -0.47066,0.181771 -0.79803,0.403933 -0.32738,0.222165 -0.84557,0.43132 -1.15154,0.464791 -0.55577,0.0608 -0.55584,0.06074 -0.0677,-0.06893 0.55018,-0.146149 1.45933,-0.746473 1.45933,-0.963611 0,-0.175862 -1.0306,-0.695075 -2.90929,-1.465694 l -1.42889,-0.586112 -1.29819,0.428519 c -0.714,0.235684 -1.92931,0.698973 -2.70068,1.029527 -0.77137,0.330555 -1.53302,0.601176 -1.69254,0.601378 -0.24957,3.12e-4 -0.27509,0.08012 -0.18286,0.571778 0.1099,0.585775 0.73394,2.246048 1.4367,3.822309 0.27143,0.608823 0.50029,0.907972 0.72885,0.952733 0.18325,0.03588 2.10383,0.0748 4.26795,0.08647 l 3.93478,0.02122 z m -8.24682,-0.254878 c 0.008,-0.181537 0.0444,-0.218462 0.0942,-0.09415 0.045,0.112491 0.0395,0.246898 -0.0123,0.298679 -0.0518,0.05178 -0.0886,-0.04026 -0.0819,-0.204529 z m -3.38331,-1.272634 c -0.30698,-0.664236 -0.66273,-1.453139 -0.79055,-1.753117 -0.41557,-0.975278 -0.98167,-1.557654 -3.35923,-3.455806 -1.66499,-1.329268 -2.37545,-1.811347 -2.46232,-1.670786 -0.0672,0.108661 -0.16961,0.606878 -0.22767,1.10715 -0.0827,0.712727 -0.0502,0.994172 0.1505,1.300403 0.24954,0.380838 0.24695,0.388669 -0.10118,0.306715 -0.19649,-0.04626 -0.4606,-0.01697 -0.58691,0.06508 -0.29614,0.192347 0.0426,0.570455 1.91963,2.142561 1.74184,1.458901 2.33872,1.833228 4.07584,2.556098 2.03822,0.84817 2.04835,0.843784 1.38189,-0.598295 z m 17.07869,0.350998 c 0.49979,-0.175923 0.54935,-0.246512 0.53322,-0.75945 -0.0215,-0.684155 0.18707,-0.746203 0.32944,-0.098 0.0565,0.257124 0.142,0.467498 0.19005,0.467498 0.15601,0 3.38284,-2.455951 3.77383,-2.87228 0.44667,-0.475612 0.26931,-0.861689 -0.26459,-0.575956 -0.16935,0.09063 -0.36336,0.11466 -0.43114,0.05339 -0.0678,-0.06127 -0.0805,0.0079 -0.0283,0.153699 0.17703,0.494352 -0.98684,1.344357 -1.44936,1.058504 -0.21579,-0.133366 -0.91038,0.222272 -1.13594,0.581612 -0.0685,0.109194 -0.20879,0.198498 -0.31166,0.198458 -0.10288,-4.2e-5 0.32598,-0.478777 0.95301,-1.063855 1.11823,-1.043407 1.13912,-1.07698 1.09083,-1.753042 -0.0401,-0.561833 -0.10964,-0.697889 -0.37597,-0.735928 -0.40004,-0.05714 -2.64864,1.572157 -3.2403,2.347866 -0.53275,0.69847 -1.18586,2.311324 -1.18586,2.928477 0,0.462722 0.021,0.478363 0.50087,0.372967 0.27548,-0.0605 0.74882,-0.197287 1.05187,-0.30396 z m -4.98106,-1.078457 c 0,-0.03585 0.0426,-0.176094 0.0946,-0.311665 0.0621,-0.161753 0.008,-0.246495 -0.15583,-0.246495 -0.13774,0 -0.25042,0.02933 -0.25042,0.06517 0,0.03585 -0.0426,0.176094 -0.0946,0.311665 -0.0621,0.161753 -0.008,0.246495 0.15583,0.246495 0.13773,0 0.25042,-0.02933 0.25042,-0.06517 z m 2.96082,-4.222517 c 0,-0.04411 -0.22791,-0.224854 -0.50646,-0.401644 -0.35456,-0.225034 -0.40129,-0.291303 -0.15583,-0.220957 0.44422,0.127303 0.44511,-0.03361 0.003,-0.504422 -0.1913,-0.203633 -1.01644,-1.330147 -1.83363,-2.503366 l -1.48582,-2.133127 -0.7904,-0.04623 c -0.57481,-0.03362 -0.84646,0.02131 -0.99592,0.201395 -0.29263,0.352596 -0.0212,0.564476 0.84874,0.662529 0.82084,0.09252 1.17132,0.430068 2.49056,2.398672 0.42274,0.630821 0.90831,1.304729 1.07904,1.497572 0.36506,0.412344 0.28543,0.432178 -0.4692,0.116874 -0.71166,-0.29735 -0.96522,-0.299146 -0.67082,-0.0048 0.40531,0.405318 2.48693,1.189988 2.48693,0.937458 z m 1.97752,-0.854709 c 3.38647,-2.306144 4.3609,-3.116732 3.74671,-3.116732 -0.42042,0 -5.41256,3.610522 -5.41256,3.914587 0,0.272593 0.31664,0.120936 1.66585,-0.797855 z m -24.02909,-0.668904 c 9.6e-4,-0.745609 -0.051,-0.967418 -0.22666,-0.967418 -0.36681,0 -0.54978,0.922418 -0.32908,1.659031 0.26963,0.899948 0.55413,0.545885 0.55574,-0.691613 z m 9.51015,-0.0055 2.95771,-0.986026 0.16998,-0.689175 0.16998,-0.689176 -0.85639,-0.07792 c -0.6695,-0.06091 -0.87962,-0.144661 -0.9628,-0.38375 -0.0995,-0.286118 -0.12395,-0.279076 -0.37838,0.109243 -0.15311,0.233679 -0.23073,0.545005 -0.17761,0.712373 0.0596,0.187663 -0.008,0.374469 -0.18187,0.506572 -0.23548,0.178403 -0.24749,0.177051 -0.0814,-0.0092 0.53427,-0.599139 -0.10193,-0.636908 -0.66085,-0.03923 -0.22042,0.235697 -0.44229,0.590503 -0.49304,0.788457 -0.057,0.222231 -0.17433,0.328426 -0.30679,0.277598 -0.11799,-0.04528 -0.21452,0.01381 -0.21452,0.131294 0,0.117487 -0.22084,0.290598 -0.49075,0.38469 -0.73782,0.257203 -0.89015,0.205392 -0.36633,-0.124594 0.25712,-0.161979 1.20255,-1.038276 2.10095,-1.947325 1.56084,-1.579342 1.66262,-1.652825 2.28934,-1.652825 1.08124,0 1.03013,-0.54149 -0.0746,-0.789694 -0.86547,-0.194459 -1.14259,-0.05821 -2.60159,1.279161 l -1.24666,1.142732 1.29999,-1.387051 c 1.12023,-1.195245 1.28831,-1.445467 1.21551,-1.809486 -0.19628,-0.981386 -2.31192,-6.633298 -2.54989,-6.812002 -0.4369,-0.328088 -2.73153,-1.165768 -3.41258,-1.245797 -1.10315,-0.129633 -0.97886,0.227574 0.28186,0.810064 0.62939,0.290796 1.34008,0.577846 1.57931,0.637889 0.23922,0.06004 0.53248,0.258334 0.65167,0.440651 0.24507,0.374839 2.4213,6.321231 2.4021,6.563548 -0.0132,0.166326 -3.05934,2.993183 -3.47764,3.227278 -0.20606,0.115316 -0.70907,-0.02298 -1.00647,-0.276718 -0.0304,-0.02596 0.21501,-0.278969 0.54541,-0.56224 1.44379,-1.237817 2.54865,-2.379297 2.54865,-2.633111 0,-0.151 -0.43307,-1.44788 -0.96237,-2.881956 l -0.96237,-2.607412 -1.56991,-0.739987 c -0.86345,-0.406992 -1.93064,-0.857755 -2.37153,-1.001695 -0.74352,-0.242745 -0.83731,-0.24325 -1.29422,-0.007 l -0.49261,0.254738 0.0825,1.043419 c 0.0454,0.57388 0.12145,1.990102 0.16899,3.14716 0.13738,3.343884 0.22326,3.934755 0.55913,3.846923 0.15558,-0.04069 0.40752,0.01717 0.55987,0.128563 0.24888,0.181988 0.23566,0.194637 -0.13033,0.124674 -0.7879,-0.150617 -0.66722,0.270663 0.35455,1.237623 1.36604,1.292764 4.07556,3.541506 4.26928,3.543247 0.0874,7.79e-4 1.48991,-0.442283 3.11665,-0.984596 z m -4.67661,-1.209044 c -0.94198,-0.851976 -1.88866,-1.740077 -2.10374,-1.973557 -0.22346,-0.242578 -0.12392,-0.188191 0.23227,0.126904 0.34284,0.303277 0.81618,0.647335 1.05187,0.764574 0.2357,0.117238 0.42854,0.304031 0.42854,0.415095 0,0.232868 0.40927,0.488535 1.4025,0.876137 0.48334,0.18862 0.56642,0.255547 0.26737,0.21538 -0.40878,-0.05491 -0.42154,-0.03919 -0.22063,0.271758 0.11729,0.181518 0.45278,0.452642 0.74554,0.602499 0.37237,0.190605 0.43866,0.269129 0.22063,0.261362 -0.17142,-0.0061 -1.08237,-0.708175 -2.02435,-1.560152 z m 25.17429,1.376944 c 0.37704,-0.451959 0.3801,-0.740205 0.008,-0.740205 -0.3088,0 -0.48417,0.286846 -0.48417,0.791909 0,0.390154 0.1184,0.3773 0.47629,-0.0517 z m -11.02087,0 c -0.0672,-0.107135 -0.102,-0.317451 -0.0773,-0.467371 0.0636,-0.386506 -0.86364,-1.61844 -1.37872,-1.831791 -0.23786,-0.09853 -0.63285,-0.156219 -0.87776,-0.128211 -0.3873,0.04429 -0.45141,0.124013 -0.49228,0.612118 -0.0526,0.628553 0.24673,0.911934 1.38906,1.314973 0.34038,0.120093 0.72613,0.325613 0.85723,0.456712 0.29097,0.290964 0.75695,0.325981 0.57981,0.04357 z m -19.93737,-1.142564 c 0.2501,-0.65177 -0.078,-1.155999 -0.75225,-1.155999 -0.32744,0 -0.30644,0.285243 0.066,0.896038 0.34031,0.558147 0.54247,0.634725 0.68628,0.259961 z m 25.65075,-0.236543 c 0.81444,-0.265669 1.5967,-0.615649 1.73836,-0.777732 0.14167,-0.162083 0.48097,-0.831325 0.75402,-1.487204 0.44454,-1.067851 0.51913,-1.479319 0.71354,-3.936205 0.1194,-1.509031 0.2359,-2.950512 0.25889,-3.203289 0.0386,-0.424441 -0.0159,-0.477539 -0.71303,-0.694193 -0.72122,-0.22415 -0.83412,-0.214661 -2.53491,0.213046 -0.97904,0.246203 -1.84297,0.523528 -1.91984,0.616276 -0.18459,0.222694 -2.34829,5.744517 -2.34829,5.992883 0,0.215049 1.62822,3.060508 1.99518,3.486749 0.30654,0.356059 0.32581,0.354087 2.05608,-0.210331 z m 8.09811,-2.100266 c 0.19839,-0.192734 0.14375,-0.221683 -0.41839,-0.221683 -0.7977,0 -1.50252,0.250035 -1.35907,0.482136 0.14102,0.228177 1.47583,0.03258 1.77746,-0.260453 z m -0.23327,-0.786706 c 0.23209,-0.08906 0.33143,-0.384501 1.26248,-3.754446 0.71716,-2.595753 0.80936,-3.345489 0.4743,-3.856854 -0.14215,-0.216959 -0.31391,-0.394471 -0.38168,-0.394471 -0.13822,0 -2.06882,2.530037 -2.353,3.083584 -0.24436,0.475994 -0.57762,2.300953 -0.71444,3.912417 l -0.11106,1.30811 0.79927,-0.106027 c 0.43959,-0.05831 0.90045,-0.144856 1.02413,-0.192313 z m -34.56417,-1.081695 c 0.0515,-0.134323 0.0143,-0.32366 -0.0828,-0.420748 -0.24482,-0.244822 -0.22049,-0.425856 0.0572,-0.425856 0.12856,0 0.23375,-0.06074 0.23375,-0.134981 0,-0.553774 -1.01493,-5.056517 -1.25183,-5.553728 -0.32478,-0.681685 -1.94959,-2.381763 -2.11665,-2.214706 -0.057,0.05704 0.13082,1.897852 0.41745,4.090702 0.41821,3.199448 0.48411,4.04632 0.3336,4.287321 -0.34149,0.546812 -0.22165,0.61622 1.064,0.61622 0.99259,0 1.27094,-0.05053 1.34526,-0.244224 z m 14.6608,-1.197228 c 0.16653,-0.210367 0.35082,-1.942704 0.23996,-2.255536 -0.0903,-0.254726 -2.23035,-1.804725 -2.34016,-1.694914 -0.0988,0.09883 0.63512,2.204608 1.09175,3.132329 0.35191,0.714966 0.56858,1.012912 0.73659,1.012912 0.0647,0 0.18706,-0.08766 0.27186,-0.194791 z m 5.94049,-1.651655 c 0.35435,-1.015546 0.64428,-1.964367 0.64428,-2.108491 0,-0.199305 -0.27049,-0.07903 -1.12978,0.502381 -1.57322,1.064449 -1.69532,1.23018 -1.7918,2.432117 l -0.0819,1.020439 h 0.85746 0.85746 z m -2.58754,-2.384247 c 1.29571,-0.809747 6.48914,-4.296343 7.03031,-4.719784 0.46682,-0.365267 0.14984,-0.804551 -0.53393,-0.739941 -0.0472,0.0045 -0.17819,-0.145015 -0.29104,-0.33217 -0.16976,-0.281529 -0.16973,-0.306649 1.4e-4,-0.14549 0.11293,0.107135 0.32666,0.194791 0.47495,0.194791 0.22812,0 0.24803,-0.07527 0.12938,-0.48897 -0.0771,-0.268935 -0.25841,-0.619558 -0.40285,-0.779163 -0.1601,-0.176903 -0.1912,-0.290194 -0.0797,-0.290194 0.2395,0 0.1182,-0.510044 -0.51882,-2.181656 -0.27762,-0.728518 -0.56772,-1.602718 -0.64467,-1.942667 -0.10076,-0.44517 -0.29249,-0.723224 -0.68532,-0.99389 l -0.54541,-0.375802 0.46327,0.109538 c 0.43819,0.103611 0.44984,0.09415 0.21512,-0.174854 -0.13648,-0.156415 -0.21788,-0.367552 -0.1809,-0.469192 0.0388,-0.106774 -0.1774,-0.252346 -0.51217,-0.344781 -0.59847,-0.165245 -0.9143,-0.102411 -0.75783,0.150767 0.13829,0.223762 -0.49807,0.171809 -1.13008,-0.09226 -0.38716,-0.161766 -0.61875,-0.186573 -0.72741,-0.07792 -0.0877,0.08768 -0.86416,0.159907 -1.72552,0.160517 -1.98567,0.0014 -3.68535,0.159424 -3.57828,0.332673 0.0454,0.07354 1.04272,0.141142 2.21615,0.150217 1.17342,0.0091 2.76462,0.06167 3.53599,0.116875 l 1.4025,0.100373 0.94302,2.727071 c 0.51866,1.499889 1.01881,2.86732 1.11145,3.038736 0.0926,0.171416 0.241,0.624419 0.32969,1.006671 0.2165,0.933191 -0.10598,1.642138 -0.68128,1.497747 -0.22529,-0.05655 -0.37831,-0.027 -0.37831,0.07305 0,0.0924 -0.0701,0.12466 -0.15583,0.07169 -0.19948,-0.123287 -0.19818,0.01927 0.004,0.39632 0.12398,0.231653 0.11207,0.279733 -0.0536,0.216177 -0.30545,-0.117213 -1.65894,0.449685 -2.81141,1.177533 -0.54461,0.343957 -1.03522,0.625375 -1.09024,0.625375 -0.055,0 -0.24028,0.14025 -0.4117,0.311666 -0.17142,0.171416 -0.43438,0.311029 -0.58437,0.310253 -0.14999,-7.79e-4 0.16453,-0.289658 0.69893,-0.64196 0.5344,-0.352303 0.93601,-0.698188 0.89247,-0.768632 -0.0435,-0.07045 -0.50357,-0.385899 -1.0223,-0.701012 l -0.94314,-0.572928 -0.80641,0.428931 c -1.32824,0.706486 -1.32957,0.711813 -0.38925,1.548723 0.63807,0.567885 0.73959,0.712996 0.43991,0.628797 -0.21427,-0.0602 -0.70514,-0.407702 -1.09083,-0.772221 -0.38568,-0.364519 -0.82396,-0.70549 -0.97395,-0.757713 -0.14999,-0.05222 -0.27271,-0.194736 -0.27271,-0.316697 0,-0.194035 -0.55728,-0.454132 -0.78333,-0.365599 -0.0452,0.01768 -0.35133,-0.26588 -0.68042,-0.630139 -0.32909,-0.364258 -0.7129,-0.665257 -0.85291,-0.668885 -0.14002,-0.0036 -0.41092,-0.251753 -0.602,-0.551393 -0.33296,-0.52213 -0.33807,-0.581835 -0.1228,-1.434857 0.12353,-0.489531 0.42012,-1.435687 0.65908,-2.10257 0.37672,-1.051333 0.4034,-1.23227 0.20073,-1.361148 -0.168,-0.106826 -0.17666,-0.149308 -0.0308,-0.151024 0.25285,-0.003 1.16559,-1.918411 1.09322,-2.294189 -0.0635,-0.329721 -0.55652,-0.458118 -0.805,-0.209643 -0.13202,0.132025 -0.12393,0.209693 0.0319,0.305994 0.26351,0.162855 0.17619,0.664129 -0.13351,0.766429 -0.20777,0.06863 -0.20777,0.04555 0,-0.207726 0.21947,-0.267524 0.20518,-0.277923 -0.23375,-0.170147 -0.62734,0.154042 -0.63659,0.167696 -0.95967,1.417315 -0.15512,0.599955 -0.37469,1.149082 -0.48794,1.220282 -0.14874,0.09352 -0.15971,0.185115 -0.0395,0.329947 0.12105,0.145853 0.10217,0.253798 -0.0693,0.396084 -0.30389,0.252209 -0.30518,0.529111 -0.002,0.412739 0.12856,-0.04933 0.23375,-0.02995 0.23375,0.04307 0,0.07302 -0.14025,0.169443 -0.31167,0.21427 -0.18283,0.04781 -0.31166,0.212557 -0.31166,0.398559 0,0.174381 -0.064,0.356626 -0.14227,0.404987 -0.0782,0.04836 -0.18851,0.361594 -0.24502,0.696071 -0.0565,0.334478 -0.20063,0.737327 -0.32027,0.895221 -0.48933,0.645802 -0.26245,0.924074 2.42172,2.970324 1.83183,1.39648 5.13552,3.78381 5.2362,3.78381 0.036,0 0.64327,-0.361069 1.34943,-0.802376 z m -8.45562,-6.365925 c 0,-0.08571 0.0743,-0.155832 0.16503,-0.155832 0.0908,0 0.12169,0.07012 0.0687,0.155832 -0.053,0.08571 -0.12724,0.155833 -0.16503,0.155833 -0.0378,0 -0.0687,-0.07012 -0.0687,-0.155833 z m 14.10771,-1.29234 c -0.0667,-0.153685 -0.0776,-0.323153 -0.0241,-0.376594 0.15825,-0.158248 0.28581,0.06404 0.21298,0.371118 -0.0646,0.272232 -0.073,0.272475 -0.18886,0.0055 z m -0.38214,-0.356888 c 0.007,-0.181537 0.0444,-0.218462 0.0941,-0.09415 0.045,0.112491 0.0395,0.246896 -0.0123,0.298679 -0.0518,0.05178 -0.0886,-0.04026 -0.0819,-0.20453 z m -12.16725,-2.723282 c 0,-0.09077 0.0701,-0.12169 0.15584,-0.06872 0.0857,0.05297 0.15583,0.127234 0.15583,0.165029 0,0.0378 -0.0701,0.06872 -0.15583,0.06872 -0.0857,0 -0.15584,-0.07426 -0.15584,-0.165029 z m 22.61441,7.489163 c 2.01359,-2.419543 2.71642,-3.584151 2.16298,-3.584151 -0.0857,0 -0.1598,-0.122718 -0.16465,-0.272707 -0.0146,-0.45126 -0.83647,-2.791514 -1.0041,-2.859064 -0.0857,-0.03454 -0.17739,0.235233 -0.20375,0.599491 -0.0428,0.591278 -0.0115,0.662289 0.29179,0.662289 0.28616,0 0.30874,0.03731 0.14329,0.236672 -0.15943,0.192101 -0.15249,0.287479 0.0369,0.506456 0.63001,0.728597 0.35509,1.282696 -0.63642,1.282696 -0.5232,0 -1.57966,0.872116 -1.57966,1.30402 0,0.139867 -0.0693,0.254306 -0.15406,0.254306 -0.23312,0 -0.78094,0.510777 -0.78094,0.728136 0,0.105255 -0.12272,0.260614 -0.27271,0.345244 -0.21023,0.118618 -0.23048,0.196538 -0.0884,0.3401 0.29623,0.299303 0.57189,0.09122 1.75392,-1.323985 1.0907,-1.305845 1.67262,-1.836686 0.90954,-0.8297 -0.71803,0.947544 -0.80417,1.206062 -0.48365,1.451472 0.25734,0.197021 0.23494,0.208853 -0.23045,0.121777 -0.43705,-0.08177 -0.52865,-0.04606 -0.60209,0.234748 -0.0476,0.182159 -0.14876,0.292784 -0.22472,0.245837 -0.076,-0.04695 -0.13812,0.135315 -0.13812,0.40503 0,0.490282 -1.5e-4,0.490368 -0.6596,0.378953 -0.36279,-0.06129 -0.73094,-0.205682 -0.81813,-0.320866 -0.0872,-0.115185 -0.83944,-0.584171 -1.67169,-1.042193 l -1.51319,-0.832766 -0.0668,-2.539642 c -0.0581,-2.211112 -0.10607,-2.592316 -0.37075,-2.946829 -0.37169,-0.497831 -2.48991,-1.993005 -2.62795,-1.854967 -0.0547,0.05468 0.15777,0.95254 0.4721,1.995249 0.31434,1.042709 0.54484,1.92251 0.51224,1.955113 -0.0612,0.06118 -1.41798,-4.191586 -1.58843,-4.978774 -0.069,-0.318454 0.0152,-0.632188 0.2999,-1.11797 0.21765,-0.371407 0.35333,-0.785791 0.30151,-0.920852 -0.0518,-0.135061 -0.0262,-0.245566 0.057,-0.245566 0.28935,0 0.97291,-0.823917 0.97291,-1.172679 0,-0.238624 0.0873,-0.344087 0.27264,-0.329374 0.17263,0.0137 0.29092,-0.106963 0.3225,-0.32898 0.0274,-0.192843 0.0743,-0.350623 0.10425,-0.350623 0.0299,0 0.56652,0.245436 1.19247,0.545414 0.62595,0.299978 1.25192,0.545414 1.39104,0.545414 0.13912,0 0.38645,0.147517 0.54962,0.327816 0.40639,0.449051 1.57881,1.119532 1.76088,1.007006 0.18061,-0.111623 0.73794,0.640191 0.87275,1.177294 0.14099,0.561768 0.75315,1.272484 1.03916,1.206466 0.21818,-0.05036 0.22113,-0.13712 0.0271,-0.79672 -0.12324,-0.418981 -0.31078,-0.740205 -0.43217,-0.740205 -0.12594,0 -0.1867,-0.11254 -0.14723,-0.272707 0.11273,-0.457421 -0.50317,-1.285619 -0.95607,-1.285619 -0.21822,0 -0.43713,-0.105186 -0.48646,-0.233745 -0.11039,-0.287666 -2.0259,-1.221927 -2.23735,-1.091238 -0.0871,0.05381 -0.11296,-0.0096 -0.0601,-0.147334 0.0523,-0.136198 0.0107,-0.241842 -0.0952,-0.241842 -0.10339,0 -0.59631,-0.252034 -1.09537,-0.560076 -0.49907,-0.308041 -1.13393,-0.571009 -1.4108,-0.584372 -0.44435,-0.02145 -0.57831,0.0798 -1.14192,0.863053 -0.35118,0.488043 -0.93654,1.273951 -1.3008,1.746463 -0.38027,0.493281 -0.66229,1.02784 -0.66229,1.255349 0,0.217929 -0.0743,0.396235 -0.16503,0.396235 -0.0908,0 -0.12169,-0.07013 -0.0687,-0.155832 0.1725,-0.27911 -0.17802,-0.164041 -0.46446,0.152474 -0.27034,0.298724 -0.23164,0.446805 1.245,4.764255 0.83821,2.450772 1.60155,4.541453 1.69631,4.645961 0.0948,0.104506 0.24901,0.32562 0.34277,0.491367 0.0937,0.165745 1.53131,1.009929 3.19457,1.875961 3.50182,1.823351 3.08293,1.831116 4.67902,-0.08674 z m -6.99845,-2.610197 c -0.30875,-0.268577 -1.07374,-2.322344 -0.92167,-2.474413 0.0429,-0.04293 0.19118,0.259578 0.32945,0.672243 0.13826,0.412665 0.42184,1.04833 0.63017,1.412589 0.42142,0.736831 0.41671,0.785087 -0.038,0.389581 z m -1.90269,-11.414739 c 0.0917,-0.171416 0.20186,-0.311665 0.24472,-0.311665 0.0428,0 0.003,0.140249 -0.0889,0.311665 -0.0917,0.171416 -0.20186,0.311665 -0.24472,0.311665 -0.0428,0 -0.003,-0.140249 0.0889,-0.311665 z m 0.85708,-0.623331 c -0.053,-0.08571 -0.0262,-0.155832 0.0595,-0.155832 0.0857,0 0.19917,0.07012 0.25214,0.155832 0.053,0.08571 0.0262,0.155833 -0.0595,0.155833 -0.0857,0 -0.19917,-0.07012 -0.25214,-0.155833 z m 1.32458,-0.320862 c 0,-0.09077 0.0701,-0.12169 0.15583,-0.06872 0.0857,0.05297 0.15583,0.127233 0.15583,0.165029 0,0.0378 -0.0701,0.06872 -0.15583,0.06872 -0.0857,0 -0.15583,-0.07426 -0.15583,-0.16503 z m -0.935,-0.293271 c 0,-0.271572 0.26366,-0.312466 0.56142,-0.08708 0.28014,0.212053 0.27317,0.224062 -0.13288,0.228758 -0.23569,0.0027 -0.42854,-0.06103 -0.42854,-0.14168 z m -26.72263,15.181762 c -0.49997,-0.728536 -1.00006,-1.400154 -1.11131,-1.492482 -0.26514,-0.220042 -0.52759,-0.04741 -0.52759,0.347021 0,0.354693 2.26622,2.751807 2.43858,2.579439 0.0602,-0.06015 -0.2997,-0.705441 -0.79968,-1.433978 z m 33.7918,-3.045304 c 0.22165,-0.372206 0.19979,-0.51023 -0.32716,-2.064782 -0.53364,-1.574316 -0.58816,-1.665912 -0.99145,-1.665912 -0.89463,0 -0.91369,0.04127 -0.80942,1.752681 0.0714,1.1715 0.0498,1.540825 -0.0853,1.457365 -0.11417,-0.07056 -0.18088,-0.596927 -0.18088,-1.427168 0,-1.109728 -0.0396,-1.31538 -0.25296,-1.31538 -0.22519,0 -0.24171,0.209495 -0.1505,1.90895 0.0563,1.049922 0.10164,2.117684 0.10063,2.372802 -9.3e-4,0.25512 0.074,0.745458 0.16668,1.089643 l 0.1685,0.625788 1.06215,-1.167558 c 0.58418,-0.642158 1.16904,-1.347049 1.29969,-1.566429 z m -2.21375,0.165122 c 0,-0.21427 0.0354,-0.301926 0.0786,-0.194791 0.0432,0.107135 0.0432,0.282447 0,0.389582 -0.0432,0.107134 -0.0786,0.01948 -0.0786,-0.194791 z m 6.51289,1.315571 c -0.27672,-0.333424 -0.36396,-0.1601 -0.13487,0.267952 0.12311,0.230038 0.219,0.290246 0.2611,0.163939 0.0366,-0.109788 -0.0202,-0.304139 -0.12623,-0.431891 z m 0.8567,0.140663 c 0.0663,-0.264228 0.0329,-0.457623 -0.0925,-0.535133 -0.27767,-0.171607 -0.44502,-0.02619 -0.44502,0.386701 0,0.664291 0.38164,0.769669 0.53756,0.148432 z m -15.49749,-0.355923 c 0.25922,-0.191709 0.37489,-0.410968 0.34568,-0.655256 -0.0241,-0.201927 -0.50011,-1.787164 -1.05771,-3.522749 -0.82431,-2.565793 -1.06645,-3.155611 -1.29547,-3.155611 -0.15492,0 -0.71101,0.277495 -1.23575,0.616655 -0.58395,0.37742 -0.99311,0.55352 -1.05467,0.453919 -0.27613,-0.446786 -0.45856,0.317862 -0.51014,2.138224 -0.0701,2.47433 0.017,2.69645 1.40765,3.587811 0.58636,0.375846 1.11268,0.683357 1.16959,0.683357 0.17505,0 -0.61223,-0.774322 -1.39229,-1.369379 -0.46736,-0.356522 -0.7379,-0.682092 -0.73396,-0.883258 0.005,-0.278132 0.035,-0.265609 0.23277,0.09859 0.1246,0.229452 0.84057,0.878435 1.59105,1.442184 1.46591,1.101172 1.72942,1.159998 2.53325,0.565517 z m -21.20981,-0.901046 c -0.30484,-0.449339 -0.38142,-0.636524 -0.19309,-0.471972 0.73102,0.638711 0.95002,0.175227 1.06932,-2.262988 0.0471,-0.962336 0.116,-2.040369 0.15316,-2.395628 0.0662,-0.632693 0.0563,-0.648032 -0.48042,-0.748729 -0.64092,-0.120237 -0.64095,-0.119902 0.20695,-1.988742 0.56059,-1.235591 0.57896,-1.681163 0.0693,-1.681163 -0.21213,0 -0.44514,0.330288 -0.85202,1.207702 -1.98538,4.281469 -2.40731,5.267009 -2.33527,5.454739 0.18248,0.475545 0.74617,0.109516 1.26082,-0.818718 0.28513,-0.514248 0.46644,-0.794746 0.40293,-0.623331 -0.0635,0.171416 -0.26174,0.734168 -0.44049,1.250562 -0.25047,0.723567 -0.38755,0.926445 -0.59772,0.88461 -0.14998,-0.02986 -0.2727,-0.0044 -0.2727,0.05665 0,0.171908 1.73381,2.736559 2.09256,3.095305 0.55175,0.551755 0.49452,-0.10656 -0.0833,-0.958302 z m 12.10604,0.160925 1.31214,-0.730637 v -2.535278 -2.535279 l -0.72044,-0.422205 c -0.54203,-0.31765 -0.78322,-0.38293 -0.97395,-0.263606 -0.23982,0.150029 -1.5166,3.447608 -1.97393,5.09812 -0.11633,0.419858 -0.28532,0.837183 -0.37552,0.927388 -0.21298,0.21298 0.71188,1.192135 1.12603,1.192135 0.16144,0 0.884,-0.328786 1.60567,-0.730638 z m -9.84515,0.26894 c 0.48917,-0.185983 0.51982,-0.382014 0.63947,-4.090726 0.0617,-1.912421 0.0379,-3.021118 -0.0691,-3.221047 -0.19222,-0.359156 -1.12556,-0.704014 -1.54505,-0.570873 -0.16146,0.05124 -0.4246,0.237965 -0.58475,0.414933 -0.28455,0.314422 -0.28434,0.326773 0.009,0.541436 0.16523,0.120821 0.4448,0.220749 0.62126,0.222061 0.64147,0.0048 0.65957,0.108444 0.54794,3.138577 -0.0993,2.69624 -0.13325,2.943933 -0.46737,3.413173 l -0.36028,0.505957 0.41028,-0.102973 c 0.22565,-0.05663 0.58491,-0.169368 0.79835,-0.250518 z m 33.05397,-0.413896 c -0.36499,-0.557041 -0.47134,-0.353218 -0.1444,0.27674 0.15286,0.294552 0.29967,0.434117 0.3378,0.321154 0.0371,-0.109882 -0.0499,-0.378933 -0.1934,-0.597894 z m -29.73334,-0.826455 c 0.26421,-0.283908 2.22675,-5.625964 2.22671,-6.061125 -3e-5,-0.250528 -0.27506,-0.172843 -1.87002,0.528212 l -1.16874,0.513715 -0.0447,2.308753 c -0.0246,1.269815 -0.006,2.466534 0.0419,2.659377 0.10612,0.429702 0.44278,0.450804 0.81479,0.05107 z m 29.0978,-0.761249 c -0.15255,-0.399439 -0.30792,-0.634575 -0.34527,-0.522527 -0.0373,0.112049 0.0569,0.530539 0.20945,0.929977 0.15255,0.399439 0.30792,0.634575 0.34527,0.522527 0.0374,-0.112049 -0.0569,-0.530539 -0.20945,-0.929977 z m -38.86313,-3.06876 c 0.84209,-1.714159 1.57551,-3.274778 1.62981,-3.468043 0.13246,-0.471386 -0.32296,-0.657087 -0.61929,-0.252527 -0.46312,0.632255 -3.04315,6.583242 -3.03849,7.008447 0.005,0.439773 0.0117,0.443604 0.25093,0.140441 0.13528,-0.171416 0.93495,-1.714159 1.77704,-3.428318 z m 38.01435,1.009563 c -0.4663,-0.914022 -0.56086,-0.664779 -0.12855,0.338841 0.20911,0.485464 0.38007,0.724334 0.40959,0.572299 0.0279,-0.143525 -0.0986,-0.553538 -0.28104,-0.91114 z m -1.15936,-1.490941 c -0.1471,-0.784104 -0.41066,-1.310697 -0.65602,-1.310697 -0.1148,0 -0.20873,0.06439 -0.20873,0.143088 0,0.0787 -0.0462,0.27154 -0.10275,0.428539 -0.0565,0.156999 -0.0452,0.233275 0.0251,0.169501 0.12489,-0.113315 0.44195,0.311639 0.63879,0.856156 0.18356,0.507765 0.4122,0.291975 0.30366,-0.286587 z m 0.0785,-1.505488 c -0.24171,-0.70709 -0.59129,-1.665008 -0.77685,-2.128706 -0.5614,-1.402861 -0.35329,-1.570339 0.50535,-0.406677 0.41234,0.558809 0.81952,1.016015 0.90485,1.016015 0.24057,0 -0.33067,-0.883779 -1.14378,-1.769565 -0.40474,-0.44092 -0.84794,-0.941922 -0.98488,-1.113338 -0.23454,-0.293584 -0.24384,-0.267509 -0.16026,0.449423 0.0488,0.418598 0.33817,1.365281 0.64304,2.10374 0.30487,0.738459 0.69705,1.745869 0.87151,2.23869 0.17445,0.49282 0.37643,0.896037 0.44883,0.896037 0.0724,0 -0.0661,-0.578528 -0.30781,-1.285619 z m -22.69075,-0.567244 c -0.11067,-0.110671 -0.53897,0.433346 -0.53138,0.674945 0.003,0.09075 0.14485,-0.0027 0.31556,-0.207693 0.17071,-0.204984 0.26783,-0.415248 0.21582,-0.467252 z m 17.54002,0.611685 c 0,-0.200192 -0.62198,-0.526283 -0.75331,-0.394949 -0.0568,0.05681 0.0327,0.202737 0.19896,0.324291 0.35189,0.257304 0.55435,0.28311 0.55435,0.07066 z m 1.62654,-0.251795 c 0.2809,-0.280895 0.19316,-0.527064 -0.19429,-0.545153 -0.16225,-0.0076 -0.18865,-0.04251 -0.0687,-0.0909 0.33754,-0.136198 0.21293,-0.490575 -0.31166,-0.886394 -0.81508,-0.614986 -3.58951,-2.115739 -3.99738,-2.162271 -0.50002,-0.05705 -0.7621,0.717349 -0.3553,1.049858 1.86092,1.521102 3.1901,2.420358 3.45379,2.336666 0.19009,-0.06033 0.4147,0.02137 0.61821,0.224873 0.38421,0.384212 0.53181,0.396865 0.85535,0.07332 z m -2.70516,-0.751885 c -0.37962,-0.457418 -2.52223,-1.826428 -2.78062,-1.776666 -0.14868,0.02863 -0.2482,0.121225 -0.22115,0.205759 0.0271,0.08454 0.14179,0.134926 0.25497,0.111981 0.11319,-0.02294 0.24289,0.05493 0.28822,0.173064 0.12075,0.314657 1.96149,1.504896 2.32737,1.504896 0.2512,0 0.2771,-0.04324 0.13121,-0.219034 z m -23.46169,-1.33561 c -0.19223,-0.212417 -0.48096,-0.315347 -0.88456,-0.315347 -0.87401,0 -0.79077,0.400851 0.14102,0.679119 0.85647,0.255773 1.16681,0.10394 0.74354,-0.363772 z m 1.37304,-0.805535 c 1.9976,-0.876672 2.8025,-1.535636 1.87572,-1.535636 -0.53992,0 -3.64167,1.388569 -3.64167,1.630279 0,0.533255 0.38185,0.512791 1.76595,-0.09464 z m 14.17294,-0.501217 c 0.2758,-0.116733 0.63722,-0.364584 0.80316,-0.55078 0.29934,-0.335872 0.29812,-0.351028 -0.15583,-1.924797 -0.54538,-1.890774 -0.26677,-1.758496 -4.04988,-1.922819 l -2.50151,-0.108656 -0.51873,1.151944 c -0.28529,0.633569 -0.55318,1.445353 -0.59529,1.803964 -0.0667,0.568021 -0.0189,0.70582 0.37108,1.069627 0.2462,0.229684 0.5879,0.475297 0.75931,0.545806 0.54952,0.226032 5.32496,0.173889 5.88769,-0.06429 z m 12.00147,-1.0333 c -0.0358,-0.756229 -0.5999,-1.538221 -0.89355,-1.238782 -0.11754,0.119865 -0.0751,0.244982 0.14598,0.430603 0.4522,0.379627 0.44303,0.80706 -0.0173,0.80706 -0.4906,0 -0.47054,0.174302 0.0565,0.491351 0.60658,0.364862 0.74434,0.269518 0.70833,-0.490232 z m -2.9203,-1.026772 c -0.46191,-0.337756 -0.68292,-0.25283 -0.25956,0.09974 0.20499,0.170707 0.41525,0.267828 0.46725,0.215823 0.052,-0.052 -0.0415,-0.194007 -0.20769,-0.315561 z M 64.365016,48.63153 c 1.3526,-0.588449 1.64462,-0.834518 1.52649,-1.286268 -0.16599,-0.634754 -0.87905,-0.469518 -2.09433,0.485312 -0.31231,0.245381 -0.61142,0.446147 -0.66468,0.446147 -0.13966,0 -1.82148,1.098408 -2.22995,1.456386 -0.6403,0.561157 -0.19736,0.560619 1.01339,-0.0012 0.66133,-0.306893 1.76342,-0.80205 2.44908,-1.100348 z m 18.09326,1.112856 c -0.052,-0.135572 -0.0946,-0.27996 -0.0946,-0.320862 0,-0.0409 -0.0671,-0.03292 -0.14903,0.01774 -0.18091,0.111812 -0.0356,0.549621 0.18237,0.549621 0.0857,0 0.11327,-0.110923 0.0612,-0.246494 z m 3.1083,-0.412685 c -0.14599,-0.0817 -0.31075,-0.10325 -0.36612,-0.04788 -0.13712,0.137123 0.30663,0.397257 0.48724,0.285629 0.0794,-0.04906 0.0249,-0.156047 -0.12112,-0.237749 z m -14.82028,-1.108666 c 0.8196,-0.772623 1.03722,-1.070252 0.99583,-1.361944 -0.0926,-0.652177 -0.54592,-0.526479 -1.54778,0.429131 -1.06645,1.017227 -1.27315,1.321962 -1.13712,1.676457 0.17395,0.453313 0.63435,0.250616 1.68907,-0.743644 z m 13.00809,-0.350205 c -0.20778,-0.222139 -0.51804,-0.476371 -0.68945,-0.56496 -0.18812,-0.09722 -0.0988,0.0629 0.22536,0.40389 0.29536,0.310729 0.60561,0.564961 0.68945,0.564961 0.0838,0 -0.0176,-0.181751 -0.22536,-0.403891 z m -1.8582,-0.947374 c 0,-0.191519 -0.51286,-0.674559 -0.7162,-0.674559 -0.32839,0 -0.39469,0.269335 -0.13118,0.532851 0.24333,0.243331 0.84738,0.344347 0.84738,0.141708 z m -10.9862,6.493741 c 0.053,-0.08571 0.12724,-0.155832 0.16503,-0.155832 0.0378,0 0.0687,0.07012 0.0687,0.155832 0,0.08571 -0.0743,0.155833 -0.16503,0.155833 -0.0908,0 -0.12169,-0.07012 -0.0687,-0.155833 z m 9.27443,-0.341426 c -0.001,-0.144931 0.0677,-0.30685 0.15345,-0.35982 0.19722,-0.12189 0.19722,0.0844 0,0.389581 -0.13019,0.201443 -0.15139,0.19733 -0.15345,-0.02976 z m 2.8026,-7.00896 c -0.29998,-0.08469 -0.61554,-0.226494 -0.70125,-0.315126 -0.17774,-0.183806 0.33127,-0.05781 1.09083,0.270016 0.5543,0.239235 0.37258,0.260277 -0.38958,0.04511 z m -4.2854,-0.597077 c -0.053,-0.08571 0.013,-0.155833 0.14664,-0.155833 0.13362,0 0.24294,0.07013 0.24294,0.155833 0,0.08571 -0.066,0.155832 -0.14663,0.155832 -0.0806,0 -0.18998,-0.07012 -0.24295,-0.155832 z m 3.00952,0.04938 c 0.11249,-0.04502 0.2469,-0.03948 0.29868,0.0123 0.0518,0.05178 -0.0403,0.08861 -0.20453,0.08185 -0.18154,-0.0075 -0.21846,-0.0444 -0.0942,-0.09415 z m -5.34701,-0.521456 c -0.68566,-0.05922 -1.98297,-0.156988 -2.8829,-0.217256 -1.72881,-0.115777 -2.41991,-0.215185 -2.30373,-0.331369 0.1022,-0.102197 6.82166,0.222394 7.00971,0.338612 0.17572,0.108603 -0.16045,0.3817 -0.42058,0.34167 -0.0857,-0.01319 -0.71683,-0.07243 -1.4025,-0.131657 z"
           style="fill:#000000;stroke-width:1" />
      </g>
    </g>
  </g>
</svg>
